<?xml version="1.0" encoding="iso-8859-1"?>
<!-- Uploaded to: SVG Repo, www.svgrepo.com, Generator: SVG Repo Mixer Tools -->
<svg version="1.1" id="Layer_1" xmlns="http://www.w3.org/2000/svg" xmlns:xlink="http://www.w3.org/1999/xlink" 
	 viewBox="0 0 512 512" xml:space="preserve">
<path style="fill:#74C8EE;" d="M256,0C114.616,0,0,114.615,0,256c0,118.499,80.513,218.193,189.82,247.363l313.617-313.269
	C474.36,80.648,374.598,0,256,0z"/>
<path style="fill:#3AAADC;" d="M512,256c0-22.787-2.993-44.873-8.579-65.902L386.783,73.461l-60.839,178.465L147.478,73.461
	L91.826,405.348l97.997,97.998C210.935,508.979,233.114,512,256,512C397.384,512,512,397.384,512,256z"/>
<rect x="125.217" y="73.461" style="fill:#FFFFFF;" width="22.261" height="46.748"/>
<rect x="364.522" y="73.461" style="fill:#FFF9CF;" width="22.261" height="46.748"/>
<polygon style="fill:#C34346;" points="386.783,106.852 431.304,193.67 233.739,215.93 256,106.852 "/>
<polygon style="fill:#E64A55;" points="256,106.852 256,215.93 80.696,193.67 125.217,106.852 "/>
<polygon style="fill:#FFF9CF;" points="420.174,204.8 420.174,405.348 306.087,405.348 222.609,305.174 256,204.8 "/>
<polygon style="fill:#FFFFFF;" points="256,204.8 256,316.305 205.913,405.348 91.826,405.348 91.826,204.8 "/>
<polygon style="fill:#A65A3A;" points="256,249.522 233.106,327.435 256,405.348 306.087,405.348 306.087,249.522 "/>
<rect x="205.913" y="249.522" style="fill:#D3754F;" width="50.087" height="155.826"/>
<polygon style="fill:#3AAADC;" points="363.965,249.522 339.33,338.566 399.583,327.435 399.583,249.522 "/>
<polygon style="fill:#74C8EE;" points="363.965,249.522 328.348,249.522 328.348,327.435 363.965,338.566 "/>
<polygon style="fill:#A65A3A;" points="363.965,327.435 348.573,338.566 363.965,349.696 399.583,349.696 399.583,327.435 "/>
<rect x="328.348" y="327.435" style="fill:#D3754F;" width="35.617" height="22.261"/>
<polygon style="fill:#74C8EE;" points="148.035,249.522 123.4,338.566 183.652,327.435 183.652,249.522 "/>
<polygon style="fill:#AEE6FF;" points="148.035,249.522 112.417,249.522 112.417,327.435 148.035,338.566 "/>
<polygon style="fill:#F37C4A;" points="148.035,327.435 132.643,338.566 148.035,349.696 183.652,349.696 183.652,327.435 "/>
<rect x="112.417" y="327.435" style="fill:#F79E73;" width="35.617" height="22.261"/>
<polygon style="fill:#F37C4A;" points="256,193.67 240.608,204.8 256,215.93 431.304,215.93 431.304,193.67 "/>
<rect x="80.696" y="193.67" style="fill:#F79E73;" width="175.304" height="22.261"/>
</svg>